<svg width="120" height="120" viewBox="0 0 120 120" fill="none" xmlns="http://www.w3.org/2000/svg">
  <rect width="120" height="120" rx="26" fill="#0e2a47"/>
  <circle cx="60" cy="62" r="46" stroke="#c9a227" stroke-width="2"/>
  <rect x="40" y="86" width="40" height="4" rx="1" fill="#faf7f0"/>
  <rect x="45" y="79" width="30" height="4" rx="1" fill="#faf7f0"/>
  <rect x="49" y="72" width="22" height="4" rx="1" fill="#faf7f0"/>
  <path d="M53 70 L54.5 44 H65.5 L67 70 Z" fill="#faf7f0"/>
  <rect x="48" y="38" width="24" height="4.5" rx="1.5" fill="#faf7f0"/>
  <path d="M60 18 C64 25 65.5 29 60 34.5 C54.5 29 56 25 60 18 Z" fill="#e87c1e"/>
  <path d="M48 25 C51 29.5 52 32.5 48 36.5 C44 32.5 45 29.5 48 25 Z" fill="#c9a227"/>
  <path d="M72 25 C75 29.5 76 32.5 72 36.5 C68 32.5 69 29.5 72 25 Z" fill="#c9a227"/>
</svg>
